Coordinates
version=1
nRows=13
nColumns=40
inDegrees=yes

Units are S.I. units (second, meters, Newtons, ...)
If the header above contains a line with 'inDegrees', this indicates whether rotational values are in degrees (yes) or radians (no).

endheader
time	pelvis_tilt	pelvis_list	pelvis_rotation	pelvis_tx	pelvis_ty	pelvis_tz	hip_flexion_r	hip_adduction_r	hip_rotation_r	knee_angle_r	knee_angle_r_beta	ankle_angle_r	subtalar_angle_r	mtp_angle_r	hip_flexion_l	hip_adduction_l	hip_rotation_l	knee_angle_l	knee_angle_l_beta	ankle_angle_l	subtalar_angle_l	mtp_angle_l	lumbar_extension	lumbar_bending	lumbar_rotation	arm_flex_r	arm_add_r	arm_rot_r	elbow_flex_r	pro_sup_r	wrist_flex_r	wrist_dev_r	arm_flex_l	arm_add_l	arm_rot_l	elbow_flex_l	pro_sup_l	wrist_flex_l	wrist_dev_l
      8.65000000	      8.09234600	      0.13545340	   -167.80382113	      0.34077705	      0.87155404	     -0.59585872	     37.35904591	    -17.04321704	    -19.66834761	     35.83448519	      0.62542975	      4.62517483	      0.00000000	      0.00000000	     41.19173584	     -1.55123153	      0.49056438	     35.37141083	      0.61734758	      2.70629649	      0.00000000	      0.00000000	    -50.23021336	     10.22920493	     -8.66740623	      0.00000000	    -10.80666400	      0.00000000	     74.32889328	     45.91360943	      0.00000000	      0.00000000	      0.00000000	    -10.80666400	      0.00000000	     74.32889328	     45.91360943	      0.00000000	      0.00000000
      8.65500000	      8.30990462	      0.01950333	   -167.61557418	      0.33998941	      0.87231157	     -0.59634876	     37.31042870	    -17.24573738	    -20.00139432	     35.58889232	      0.62114335	      4.63702077	      0.00000000	      0.00000000	     41.21749217	     -1.43505609	      0.16937316	     35.12337979	      0.61301862	      2.49033913	      0.00000000	      0.00000000	    -49.70606026	     10.14481341	     -8.67020016	      0.00000000	    -10.81575196	      0.00000000	     74.33151664	     45.90583112	      0.00000000	      0.00000000	      0.00000000	    -10.81575196	      0.00000000	     74.33151664	     45.90583112	      0.00000000	      0.00000000
      8.66000000	      8.11959092	      0.04830017	   -167.77187678	      0.34030396	      0.87433675	     -0.59605418	     36.81110810	    -17.00708280	    -20.03054665	     34.89120821	      0.60896646	      4.04709010	      0.00000000	      0.00000000	     40.49606451	     -1.51977919	      0.18077856	     34.12962460	      0.59567432	      2.10797482	      0.00000000	      0.00000000	    -49.80443031	     10.12261034	     -8.65207977	      0.00000000	    -10.84439297	      0.00000000	     74.34002258	     45.87849893	      0.00000000	      0.00000000	      0.00000000	    -10.84439297	      0.00000000	     74.34002258	     45.87849893	      0.00000000	      0.00000000
      8.66500000	      8.35747586	     -0.15240428	   -167.46783779	      0.33973887	      0.87515474	     -0.59639811	     36.76813964	    -17.36894459	    -20.37667112	     34.65165645	      0.60478550	      3.96206942	      0.00000000	      0.00000000	     40.39782401	     -1.19107151	      0.11719195	     33.57130415	      0.58592979	      1.70082371	      0.00000000	      0.00000000	    -49.30306446	     10.05006550	     -8.85747940	      0.00000000	    -10.85627512	      0.00000000	     74.34351192	     45.86747720	      0.00000000	      0.00000000	      0.00000000	    -10.85627512	      0.00000000	     74.34351192	     45.86747720	      0.00000000	      0.00000000
      8.67000000	      8.32361493	     -0.03913979	   -167.54020236	      0.33975510	      0.87635896	     -0.59627573	     36.49496433	    -17.15754628	    -20.52297048	     34.16692406	      0.59632532	      3.60136092	      0.00000000	      0.00000000	     40.13611063	     -1.33038902	      0.07917231	     33.12120763	      0.57807413	      1.51118811	      0.00000000	      0.00000000	    -49.09844698	     10.09970188	     -8.97408285	      0.00000000	    -10.88665421	      0.00000000	     74.35241857	     45.84000235	      0.00000000	      0.00000000	      0.00000000	    -10.88665421	      0.00000000	     74.35241857	     45.84000235	      0.00000000	      0.00000000
      8.67500000	      8.25406289	      0.12392766	   -167.75664110	      0.33971395	      0.87768462	     -0.59619614	     36.19473335	    -16.78874322	    -20.56498260	     33.59357525	      0.58631850	      3.17994548	      0.00000000	      0.00000000	     39.86144218	     -1.62133614	     -0.09819571	     32.72847541	      0.57121966	      1.33057423	      0.00000000	      0.00000000	    -48.96390145	     10.11348330	     -8.77395136	      0.00000000	    -10.91611080	      0.00000000	     74.36098721	     45.81421249	      0.00000000	      0.00000000	      0.00000000	    -10.91611080	      0.00000000	     74.36098721	     45.81421249	      0.00000000	      0.00000000
      8.68000000	      8.27398191	      0.08364049	   -167.79296309	      0.33937072	      0.87872985	     -0.59642222	     35.99667426	    -16.74541841	    -20.67208748	     33.23171861	      0.58000291	      2.97479879	      0.00000000	      0.00000000	     39.61366395	     -1.64364931	     -0.28875634	     32.29825930	      0.56371097	      1.09660467	      0.00000000	      0.00000000	    -48.70293922	     10.01082639	     -8.73346244	      0.00000000	    -10.93448220	      0.00000000	     74.36630610	     45.79829789	      0.00000000	      0.00000000	      0.00000000	    -10.93448220	      0.00000000	     74.36630610	     45.79829789	      0.00000000	      0.00000000
      8.68500000	      8.44178881	     -0.17513964	   -167.45899581	      0.33863457	      0.87938558	     -0.59671758	     35.91722007	    -17.18607105	    -21.03331158	     33.13349504	      0.57828858	      3.02697526	      0.00000000	      0.00000000	     39.47750328	     -1.24923107	     -0.32754543	     31.84931898	      0.55587548	      0.73422569	      0.00000000	      0.00000000	    -48.22627269	      9.91865355	     -8.98535092	      0.00000000	    -10.94495919	      0.00000000	     74.36936315	     45.78883273	      0.00000000	      0.00000000	      0.00000000	    -10.94495919	      0.00000000	     74.36936315	     45.78883273	      0.00000000	      0.00000000
      8.69000000	      8.24588460	      0.04754442	   -167.79037296	      0.33874727	      0.88065713	     -0.59654099	     35.54398515	    -16.68158791	    -20.98543040	     32.57044173	      0.56846145	      2.58086753	      0.00000000	      0.00000000	     39.13453067	     -1.65211139	     -0.45914754	     31.55699802	      0.55077352	      0.70325368	      0.00000000	      0.00000000	    -48.20246165	      9.94079580	     -8.87999668	      0.00000000	    -10.98012205	      0.00000000	     74.37947576	     45.75940481	      0.00000000	      0.00000000	      0.00000000	    -10.98012205	      0.00000000	     74.37947576	     45.75940481	      0.00000000	      0.00000000
      8.69500000	      8.41333632	     -0.10573054	   -167.60372884	      0.33791479	      0.88099744	     -0.59705676	     35.53078646	    -16.92762060	    -21.24690181	     32.48724489	      0.56700939	      2.67272976	      0.00000000	      0.00000000	     39.18868036	     -1.47897209	     -0.66859379	     31.47352780	      0.54931669	      0.52236703	      0.00000000	      0.00000000	    -47.67681869	      9.83613262	     -8.91618753	      0.00000000	    -10.99185695	      0.00000000	     74.38274470	     45.75071357	      0.00000000	      0.00000000	      0.00000000	    -10.99185695	      0.00000000	     74.38274470	     45.75071357	      0.00000000	      0.00000000
      8.70000000	      8.33456993	     -0.27826300	   -167.44741875	      0.33762071	      0.88205712	     -0.59672348	     35.24609716	    -17.17917886	    -21.50061949	     32.30911470	      0.56390043	      2.49036217	      0.00000000	      0.00000000	     38.69882203	     -1.18255956	     -0.47108002	     30.79515354	      0.53747682	      0.25053112	      0.00000000	      0.00000000	    -47.48949225	      9.78785049	     -9.48136791	      0.00000000	    -11.01435680	      0.00000000	     74.38919908	     45.73191638	      0.00000000	      0.00000000	      0.00000000	    -11.01435680	      0.00000000	     74.38919908	     45.73191638	      0.00000000	      0.00000000
      8.70500000	      8.40324972	     -0.22553873	   -167.50062577	      0.33725886	      0.88231413	     -0.59688557	     35.28556637	    -17.11441838	    -21.60603592	     32.28808927	      0.56353347	      2.50126623	      0.00000000	      0.00000000	     38.78752561	     -1.27724901	     -0.56240467	     30.87055765	      0.53879287	      0.26988945	      0.00000000	      0.00000000	    -47.10465416	      9.69700602	     -9.44599665	      0.00000000	    -11.02904310	      0.00000000	     74.39320873	     45.72212129	      0.00000000	      0.00000000	      0.00000000	    -11.02904310	      0.00000000	     74.39320873	     45.72212129	      0.00000000	      0.00000000
      8.71000000	      8.42612993	     -0.18377639	   -167.57602201	      0.33699386	      0.88316804	     -0.59685870	     35.07551587	    -16.92287898	    -21.53067801	     31.77584194	      0.55459306	      2.18087892	      0.00000000	      0.00000000	     38.55819785	     -1.32261415	     -0.50857052	     30.40370189	      0.53064470	      0.02845979	      0.00000000	      0.00000000	    -46.76484123	      9.71059637	     -9.43227622	      0.00000000	    -11.05352913	      0.00000000	     74.40008504	     45.70348505	      0.00000000	      0.00000000	      0.00000000	    -11.05352913	      0.00000000	     74.40008504	     45.70348505	      0.00000000	      0.00000000
